<svg version="1.1" id="Layer_1" xmlns="http://www.w3.org/2000/svg" xmlns:xlink="http://www.w3.org/1999/xlink" x="0px" y="0px"
	 width="100%" viewBox="0 0 767 242" enable-background="new 0 0 767 242" xml:space="preserve">
<path fill="#FFFFFF" opacity="1.000000" stroke="none" 
	d="
M540.000000,243.000000 
	C360.000031,243.000000 180.500046,243.000000 1.000048,243.000000 
	C1.000032,162.333359 1.000032,81.666725 1.000016,1.000070 
	C256.666595,1.000046 512.333191,1.000046 767.999878,1.000023 
	C767.999878,81.666595 767.999878,162.333191 767.999939,242.999893 
	C692.166687,243.000000 616.333313,243.000000 540.000000,243.000000 
M51.999641,74.695877 
	C51.999641,105.771027 51.999641,136.846176 51.999641,167.850861 
	C61.744331,167.850861 70.681694,167.850861 80.149948,167.850861 
	C80.149948,150.757751 80.149948,133.944794 80.149948,117.131836 
	C85.021065,125.895088 88.966026,134.825455 93.038239,143.697433 
	C95.371460,148.780716 96.679993,155.761566 100.700562,158.246460 
	C104.818199,160.791367 111.697128,159.128387 117.336220,158.788803 
	C118.966476,158.690628 121.197983,157.160263 121.938850,155.678864 
	C125.206184,149.145523 128.011230,142.381897 131.019623,135.717880 
	C133.762939,129.641006 136.552429,123.584984 139.321579,117.519768 
	C139.662231,117.619850 140.002884,117.719925 140.343536,117.820000 
	C140.343536,134.426865 140.343536,151.033737 140.343536,167.886871 
	C149.826431,167.886871 158.916519,167.886871 168.329468,167.886871 
	C168.329468,135.626846 168.329468,103.564705 168.329468,70.999130 
	C158.468353,70.999130 148.838531,71.233696 139.229660,70.887367 
	C135.207214,70.742371 133.497360,72.185783 131.895966,75.724052 
	C125.047592,90.855560 117.827393,105.818787 110.390060,121.591454 
	C109.325249,119.524666 108.551170,118.117378 107.861954,116.669693 
	C101.211319,102.700058 94.645218,88.689201 87.838600,74.796127 
	C87.056816,73.200424 84.991722,71.223801 83.460243,71.169945 
	C73.974472,70.836418 64.469406,70.920479 54.976212,71.122475 
	C53.967133,71.143951 52.993412,72.827042 51.999641,74.695877 
M462.756378,139.138733 
	C462.756378,131.663559 462.756378,124.188385 462.756378,116.713211 
	C466.441559,122.507736 469.228638,128.324387 471.678772,134.279648 
	C472.743896,136.868607 474.306549,137.438766 476.937195,137.744125 
	C482.379883,138.375870 485.829620,136.745941 487.270905,131.227112 
	C487.810425,129.161209 488.919067,127.236656 489.831543,125.277130 
	C491.217407,122.301071 492.658539,119.350739 494.076202,116.389481 
	C494.431519,116.519028 494.786865,116.648575 495.142181,116.778122 
	C495.142181,125.223694 495.142181,133.669266 495.142181,142.291794 
	C500.215027,142.291794 504.952087,142.291794 509.701782,142.291794 
	C509.701782,124.874947 509.701782,107.793983 509.701782,90.243294 
	C504.780365,90.243294 500.142914,90.409630 495.524689,90.183731 
	C492.537537,90.037621 491.113342,91.235374 489.924194,93.900536 
	C486.490784,101.595856 482.736359,109.147957 478.797760,117.406815 
	C474.681946,108.853447 471.019684,101.072456 467.160156,93.390556 
	C466.523071,92.122536 465.072479,90.466621 463.911438,90.395241 
	C458.659760,90.072365 453.377075,90.254089 447.865417,90.254089 
	C447.865417,107.933350 447.865417,124.994293 447.865417,142.603271 
	C452.297424,142.603271 456.423737,142.735550 460.527100,142.487762 
	C461.314819,142.440186 462.012299,140.898834 462.756378,139.138733 
M204.843781,110.500214 
	C204.843781,121.075142 204.843781,131.650070 204.843781,142.320801 
	C210.191177,142.320801 214.775040,142.320801 219.992004,142.320801 
	C219.992004,133.592621 219.992004,125.154900 219.992004,116.717171 
	C223.550766,122.484573 226.512985,128.239594 228.733887,134.267715 
	C230.551514,139.201233 234.348068,137.162064 237.495041,137.622086 
	C240.322037,138.035324 241.963272,137.036194 243.104034,134.169067 
	C245.580414,127.945091 248.526154,121.907845 251.279999,115.794258 
	C251.585098,115.868721 251.890198,115.943184 252.195297,116.017647 
	C252.195297,124.742218 252.195297,133.466782 252.195297,142.235107 
	C257.353119,142.235107 262.069916,142.235107 266.723511,142.235107 
	C266.723511,124.781898 266.723511,107.720863 266.723511,90.243889 
	C261.917572,90.243889 257.439728,90.438751 252.988571,90.177780 
	C249.836777,89.992989 248.260086,91.165794 246.991730,94.026474 
	C243.657440,101.546730 239.966232,108.908745 235.905090,117.405220 
	C231.794205,108.768509 228.253372,101.167908 224.529739,93.657936 
	C223.874176,92.335793 222.510147,90.498497 221.376953,90.427048 
	C215.982941,90.086960 210.555664,90.274857 204.843643,90.274857 
	C204.843643,97.206367 204.843643,103.353416 204.843781,110.500214 
M596.905273,128.212433 
	C601.779480,140.058502 610.186279,142.881241 623.579407,136.269302 
	C622.371521,139.129105 622.087280,142.003006 620.561279,143.027603 
	C614.507263,147.092468 608.539429,143.334091 602.398315,141.675613 
	C600.729065,145.296738 599.151306,148.719574 597.414185,152.487900 
	C606.748962,157.599304 616.045471,159.113831 626.013733,156.166412 
	C633.779114,153.870377 638.833801,147.942734 639.026428,139.926407 
	C639.258057,130.285736 639.130066,120.636406 639.153870,110.990814 
	C639.161072,108.068985 639.154968,105.147125 639.154968,102.328346 
	C627.722473,101.188957 624.329407,101.567947 621.579041,104.135887 
	C610.759033,98.518433 600.240417,101.910629 597.185669,112.746140 
	C595.898438,117.311966 596.817932,122.499916 596.905273,128.212433 
M552.613831,142.636810 
	C555.899780,142.636810 559.185730,142.636810 562.946899,142.636810 
	C562.946899,136.387741 562.925781,130.761978 562.952515,125.136452 
	C562.982300,118.875160 564.704590,115.729744 568.242249,116.056633 
	C573.903015,116.579727 572.976257,121.096207 573.031189,124.814384 
	C573.116394,130.582031 573.053650,136.351883 573.053650,142.335785 
	C578.930359,142.335785 584.177368,142.335785 589.873840,142.335785 
	C589.873840,133.259018 590.107849,124.466232 589.794617,115.692993 
	C589.572083,109.460793 586.792786,104.379883 580.578125,102.113289 
	C574.579285,99.925369 569.113464,100.992767 564.554016,105.708000 
	C564.248535,106.023949 563.772644,106.175125 563.236938,106.482727 
	C563.008423,104.904701 562.808838,103.526505 562.621338,102.232101 
	C556.982971,102.232101 551.729797,102.232101 546.053711,102.232101 
	C546.053711,109.165146 546.053711,115.794746 546.053711,122.424339 
	C546.053711,129.013931 546.053711,135.603516 546.053711,141.910812 
	C547.072693,142.298508 547.373413,142.499619 547.683777,142.515930 
	C549.012390,142.585754 550.343933,142.601120 552.613831,142.636810 
M279.742126,107.219444 
	C273.453339,113.791031 272.187988,121.653999 275.158722,129.830826 
	C280.083160,143.385071 300.363068,147.738663 312.292267,138.087036 
	C318.763153,132.851593 320.434540,125.893318 319.103455,117.972649 
	C317.865265,110.604591 313.701965,105.557243 306.693451,103.114296 
	C297.333160,99.851585 288.407806,100.646378 279.742126,107.219444 
M698.784424,101.665283 
	C687.611023,100.018517 678.397400,104.902336 674.983643,114.281181 
	C671.284302,124.444351 674.534119,134.882935 683.008972,140.059433 
	C692.095459,145.609528 706.410889,143.557037 713.782959,135.518204 
	C713.025330,134.709442 712.191467,133.933243 711.490601,133.051392 
	C708.453613,129.230011 705.509521,126.607262 700.077393,129.882584 
	C696.562439,132.001999 692.886597,130.882751 690.864746,126.009468 
	C695.606506,126.009468 699.752747,126.009468 703.898987,126.009468 
	C708.158447,126.009468 712.417908,126.009468 716.622925,126.009468 
	C717.446655,112.438232 711.464539,104.189468 698.784424,101.665283 
M439.855835,115.905785 
	C435.902618,105.390572 427.820129,100.222374 417.120056,101.367805 
	C406.524628,102.502029 399.297791,108.754669 398.028595,117.885635 
	C396.487183,128.974960 400.698883,137.510223 409.143250,141.058624 
	C418.337067,144.921951 433.326782,143.157761 437.743622,135.042404 
	C436.482666,133.849335 435.161560,132.589111 433.828857,131.341278 
	C432.399536,130.002960 430.959351,128.676270 429.619995,127.433678 
	C421.102722,132.100708 417.856812,131.809067 415.229889,125.934578 
	C423.819763,125.934578 432.215210,125.934578 441.267578,125.934578 
	C440.798157,122.508095 440.400787,119.607735 439.855835,115.905785 
M352.589935,142.543869 
	C353.993378,139.828781 355.671234,137.218124 356.751373,134.379990 
	C360.759796,123.847496 364.571320,113.240067 368.727844,101.922920 
	C363.837585,101.922920 359.712982,102.132286 355.621582,101.853645 
	C352.598145,101.647728 351.617035,102.997040 350.977783,105.648209 
	C349.365173,112.336372 347.489746,118.961174 345.402252,126.803787 
	C343.376404,118.881248 341.777466,112.110168 339.830048,105.440857 
	C339.431213,104.074951 337.800507,102.186043 336.611115,102.089005 
	C331.876892,101.702713 327.092651,101.929893 322.462128,101.929893 
	C322.299377,102.629547 322.187103,102.818695 322.234528,102.950363 
	C325.273041,111.390144 328.277618,119.842621 331.393280,128.253922 
	C333.116364,132.905670 333.804443,139.226212 337.197235,141.613052 
	C340.600433,144.007202 346.785614,142.446899 352.589935,142.543869 
M649.226562,121.499809 
	C649.226562,128.410660 649.226562,135.321503 649.226562,142.317200 
	C655.249573,142.317200 660.489319,142.317200 665.824402,142.317200 
	C665.824402,123.922180 665.824402,105.857361 665.824402,87.665062 
	C660.206909,87.665062 654.859680,87.665062 649.226807,87.665062 
	C649.226807,98.900673 649.226807,109.700279 649.226562,121.499809 
M519.349792,135.373474 
	C519.349792,137.640366 519.349792,139.907272 519.349792,142.386642 
	C525.254761,142.386642 530.490662,142.386642 535.918335,142.386642 
	C535.918335,128.804977 535.918335,115.490189 535.918335,102.246880 
	C530.267151,102.246880 525.032043,102.246880 519.350281,102.246880 
	C519.350281,113.185150 519.350281,123.796738 519.349792,135.373474 
M373.917511,131.476181 
	C373.917511,135.060013 373.917511,138.643829 373.917511,142.340912 
	C379.825287,142.340912 385.050232,142.340912 390.498718,142.340912 
	C390.498718,128.854187 390.498718,115.670654 390.498718,102.290024 
	C384.880066,102.290024 379.538513,102.290024 373.917480,102.290024 
	C373.917480,111.934784 373.917480,121.209686 373.917511,131.476181 
M390.563599,90.416832 
	C388.999359,82.755013 383.053040,79.457802 377.436340,83.176537 
	C373.962738,85.476372 372.976654,88.844772 374.001495,92.692802 
	C375.071655,96.710953 378.088409,98.740784 382.094574,98.670395 
	C386.841309,98.587013 389.686554,95.907021 390.563599,90.416832 
M519.993530,86.671898 
	C518.527283,92.891403 520.158203,96.570587 525.138977,98.279129 
	C529.034180,99.615295 533.332825,97.878807 535.240784,94.198311 
	C537.172729,90.471558 535.929260,85.522850 532.468811,83.166687 
	C528.729065,80.620308 523.774109,81.771523 519.993530,86.671898 
z"/>
<path fill="#4693F3" opacity="1.000000" stroke="none" 
	d="
M52.001465,74.217575 
	C52.993412,72.827042 53.967133,71.143951 54.976212,71.122475 
	C64.469406,70.920479 73.974472,70.836418 83.460243,71.169945 
	C84.991722,71.223801 87.056816,73.200424 87.838600,74.796127 
	C94.645218,88.689201 101.211319,102.700058 107.861954,116.669693 
	C108.551170,118.117378 109.325249,119.524666 110.390060,121.591454 
	C117.827393,105.818787 125.047592,90.855560 131.895966,75.724052 
	C133.497360,72.185783 135.207214,70.742371 139.229660,70.887367 
	C148.838531,71.233696 158.468353,70.999130 168.329468,70.999130 
	C168.329468,103.564705 168.329468,135.626846 168.329468,167.886871 
	C158.916519,167.886871 149.826431,167.886871 140.343536,167.886871 
	C140.343536,151.033737 140.343536,134.426865 140.343536,117.820000 
	C140.002884,117.719925 139.662231,117.619850 139.321579,117.519768 
	C136.552429,123.584984 133.762939,129.641006 131.019623,135.717880 
	C128.011230,142.381897 125.206184,149.145523 121.938850,155.678864 
	C121.197983,157.160263 118.966476,158.690628 117.336220,158.788803 
	C111.697128,159.128387 104.818199,160.791367 100.700562,158.246460 
	C96.679993,155.761566 95.371460,148.780716 93.038239,143.697433 
	C88.966026,134.825455 85.021065,125.895088 80.149948,117.131836 
	C80.149948,133.944794 80.149948,150.757751 80.149948,167.850861 
	C70.681694,167.850861 61.744331,167.850861 51.999641,167.850861 
	C51.999641,136.846176 51.999641,105.771027 52.001465,74.217575 
z"/>
<path fill="#E55361" opacity="1.000000" stroke="none" 
	d="
M462.753906,139.592682 
	C462.012299,140.898834 461.314819,142.440186 460.527100,142.487762 
	C456.423737,142.735550 452.297424,142.603271 447.865417,142.603271 
	C447.865417,124.994293 447.865417,107.933350 447.865417,90.254089 
	C453.377075,90.254089 458.659760,90.072365 463.911438,90.395241 
	C465.072479,90.466621 466.523071,92.122536 467.160156,93.390556 
	C471.019684,101.072456 474.681946,108.853447 478.797760,117.406815 
	C482.736359,109.147957 486.490784,101.595856 489.924194,93.900536 
	C491.113342,91.235374 492.537537,90.037621 495.524689,90.183731 
	C500.142914,90.409630 504.780365,90.243294 509.701782,90.243294 
	C509.701782,107.793983 509.701782,124.874947 509.701782,142.291794 
	C504.952087,142.291794 500.215027,142.291794 495.142181,142.291794 
	C495.142181,133.669266 495.142181,125.223694 495.142181,116.778122 
	C494.786865,116.648575 494.431519,116.519028 494.076202,116.389481 
	C492.658539,119.350739 491.217407,122.301071 489.831543,125.277130 
	C488.919067,127.236656 487.810425,129.161209 487.270905,131.227112 
	C485.829620,136.745941 482.379883,138.375870 476.937195,137.744125 
	C474.306549,137.438766 472.743896,136.868607 471.678772,134.279648 
	C469.228638,128.324387 466.441559,122.507736 462.756378,116.713211 
	C462.756378,124.188385 462.756378,131.663559 462.753906,139.592682 
z"/>
<path fill="#E55361" opacity="1.000000" stroke="none" 
	d="
M204.843719,110.000336 
	C204.843643,103.353416 204.843643,97.206367 204.843643,90.274857 
	C210.555664,90.274857 215.982941,90.086960 221.376953,90.427048 
	C222.510147,90.498497 223.874176,92.335793 224.529739,93.657936 
	C228.253372,101.167908 231.794205,108.768509 235.905090,117.405220 
	C239.966232,108.908745 243.657440,101.546730 246.991730,94.026474 
	C248.260086,91.165794 249.836777,89.992989 252.988571,90.177780 
	C257.439728,90.438751 261.917572,90.243889 266.723511,90.243889 
	C266.723511,107.720863 266.723511,124.781898 266.723511,142.235107 
	C262.069916,142.235107 257.353119,142.235107 252.195297,142.235107 
	C252.195297,133.466782 252.195297,124.742218 252.195297,116.017647 
	C251.890198,115.943184 251.585098,115.868721 251.279999,115.794258 
	C248.526154,121.907845 245.580414,127.945091 243.104034,134.169067 
	C241.963272,137.036194 240.322037,138.035324 237.495041,137.622086 
	C234.348068,137.162064 230.551514,139.201233 228.733887,134.267715 
	C226.512985,128.239594 223.550766,122.484573 219.992004,116.717171 
	C219.992004,125.154900 219.992004,133.592621 219.992004,142.320801 
	C214.775040,142.320801 210.191177,142.320801 204.843781,142.320801 
	C204.843781,131.650070 204.843781,121.075142 204.843719,110.000336 
z"/>
<path fill="#E55361" opacity="1.000000" stroke="none" 
	d="
M596.819824,127.808746 
	C596.817932,122.499916 595.898438,117.311966 597.185669,112.746140 
	C600.240417,101.910629 610.759033,98.518433 621.579041,104.135887 
	C624.329407,101.567947 627.722473,101.188957 639.154968,102.328346 
	C639.154968,105.147125 639.161072,108.068985 639.153870,110.990814 
	C639.130066,120.636406 639.258057,130.285736 639.026428,139.926407 
	C638.833801,147.942734 633.779114,153.870377 626.013733,156.166412 
	C616.045471,159.113831 606.748962,157.599304 597.414185,152.487900 
	C599.151306,148.719574 600.729065,145.296738 602.398315,141.675613 
	C608.539429,143.334091 614.507263,147.092468 620.561279,143.027603 
	C622.087280,142.003006 622.371521,139.129105 623.579407,136.269302 
	C610.186279,142.881241 601.779480,140.058502 596.819824,127.808746 
M617.395020,128.017120 
	C622.677429,125.976601 624.434814,119.194427 620.713013,115.212196 
	C618.583191,112.933365 614.871521,113.136322 612.869385,115.641121 
	C609.517273,119.834824 611.358826,125.946335 617.395020,128.017120 
z"/>
<path fill="#E65663" opacity="1.000000" stroke="none" 
	d="
M552.144104,142.636566 
	C550.343933,142.601120 549.012390,142.585754 547.683777,142.515930 
	C547.373413,142.499619 547.072693,142.298508 546.053711,141.910812 
	C546.053711,135.603516 546.053711,129.013931 546.053711,122.424339 
	C546.053711,115.794746 546.053711,109.165146 546.053711,102.232101 
	C551.729797,102.232101 556.982971,102.232101 562.621338,102.232101 
	C562.808838,103.526505 563.008423,104.904701 563.236938,106.482727 
	C563.772644,106.175125 564.248535,106.023949 564.554016,105.708000 
	C569.113464,100.992767 574.579285,99.925369 580.578125,102.113289 
	C586.792786,104.379883 589.572083,109.460793 589.794617,115.692993 
	C590.107849,124.466232 589.873840,133.259018 589.873840,142.335785 
	C584.177368,142.335785 578.930359,142.335785 573.053650,142.335785 
	C573.053650,136.351883 573.116394,130.582031 573.031189,124.814384 
	C572.976257,121.096207 573.903015,116.579727 568.242249,116.056633 
	C564.704590,115.729744 562.982300,118.875160 562.952515,125.136452 
	C562.925781,130.761978 562.946899,136.387741 562.946899,142.636810 
	C559.185730,142.636810 555.899780,142.636810 552.144104,142.636566 
z"/>
<path fill="#E55361" opacity="1.000000" stroke="none" 
	d="
M280.000427,106.965271 
	C288.407806,100.646378 297.333160,99.851585 306.693451,103.114296 
	C313.701965,105.557243 317.865265,110.604591 319.103455,117.972649 
	C320.434540,125.893318 318.763153,132.851593 312.292267,138.087036 
	C300.363068,147.738663 280.083160,143.385071 275.158722,129.830826 
	C272.187988,121.653999 273.453339,113.791031 280.000427,106.965271 
M293.831299,115.340317 
	C290.147003,118.026779 290.237823,121.853943 291.089600,125.630165 
	C292.025696,129.780182 297.020325,131.652893 300.009857,129.008484 
	C303.229187,126.160851 303.464661,122.445007 301.999298,118.576286 
	C300.646545,115.004852 297.987823,114.069656 293.831299,115.340317 
z"/>
<path fill="#E65563" opacity="1.000000" stroke="none" 
	d="
M699.196777,101.737915 
	C711.464539,104.189468 717.446655,112.438232 716.622925,126.009468 
	C712.417908,126.009468 708.158447,126.009468 703.898987,126.009468 
	C699.752747,126.009468 695.606506,126.009468 690.864746,126.009468 
	C692.886597,130.882751 696.562439,132.001999 700.077393,129.882584 
	C705.509521,126.607262 708.453613,129.230011 711.490601,133.051392 
	C712.191467,133.933243 713.025330,134.709442 713.782959,135.518204 
	C706.410889,143.557037 692.095459,145.609528 683.008972,140.059433 
	C674.534119,134.882935 671.284302,124.444351 674.983643,114.281181 
	C678.397400,104.902336 687.611023,100.018517 699.196777,101.737915 
M690.430237,117.111061 
	C693.465515,117.579178 696.500793,118.047295 699.536011,118.515411 
	C699.860962,117.992470 700.185913,117.469528 700.510864,116.946587 
	C699.086548,115.513275 697.596924,112.865746 696.253601,112.937996 
	C694.351501,113.040283 692.557312,115.149017 690.430237,117.111061 
z"/>
<path fill="#E65562" opacity="1.000000" stroke="none" 
	d="
M439.929626,116.306580 
	C440.400787,119.607735 440.798157,122.508095 441.267578,125.934578 
	C432.215210,125.934578 423.819763,125.934578 415.229889,125.934578 
	C417.856812,131.809067 421.102722,132.100708 429.619995,127.433678 
	C430.959351,128.676270 432.399536,130.002960 433.828857,131.341278 
	C435.161560,132.589111 436.482666,133.849335 437.743622,135.042404 
	C433.326782,143.157761 418.337067,144.921951 409.143250,141.058624 
	C400.698883,137.510223 396.487183,128.974960 398.028595,117.885635 
	C399.297791,108.754669 406.524628,102.502029 417.120056,101.367805 
	C427.820129,100.222374 435.902618,105.390572 439.929626,116.306580 
M416.175720,118.154778 
	C418.731445,118.154778 421.287170,118.154778 424.015869,118.154778 
	C423.748474,113.897820 421.904480,111.914192 418.551697,112.660828 
	C416.174011,113.190338 413.543121,114.603226 416.175720,118.154778 
z"/>
<path fill="#E65563" opacity="1.000000" stroke="none" 
	d="
M352.170715,142.581802 
	C346.785614,142.446899 340.600433,144.007202 337.197235,141.613052 
	C333.804443,139.226212 333.116364,132.905670 331.393280,128.253922 
	C328.277618,119.842621 325.273041,111.390144 322.234528,102.950363 
	C322.187103,102.818695 322.299377,102.629547 322.462128,101.929893 
	C327.092651,101.929893 331.876892,101.702713 336.611115,102.089005 
	C337.800507,102.186043 339.431213,104.074951 339.830048,105.440857 
	C341.777466,112.110168 343.376404,118.881248 345.402252,126.803787 
	C347.489746,118.961174 349.365173,112.336372 350.977783,105.648209 
	C351.617035,102.997040 352.598145,101.647728 355.621582,101.853645 
	C359.712982,102.132286 363.837585,101.922920 368.727844,101.922920 
	C364.571320,113.240067 360.759796,123.847496 356.751373,134.379990 
	C355.671234,137.218124 353.993378,139.828781 352.170715,142.581802 
z"/>
<path fill="#E65765" opacity="1.000000" stroke="none" 
	d="
M649.226685,120.999847 
	C649.226807,109.700279 649.226807,98.900673 649.226807,87.665062 
	C654.859680,87.665062 660.206909,87.665062 665.824402,87.665062 
	C665.824402,105.857361 665.824402,123.922180 665.824402,142.317200 
	C660.489319,142.317200 655.249573,142.317200 649.226562,142.317200 
	C649.226562,135.321503 649.226562,128.410660 649.226685,120.999847 
z"/>
<path fill="#E65865" opacity="1.000000" stroke="none" 
	d="
M519.350037,134.890900 
	C519.350281,123.796738 519.350281,113.185150 519.350281,102.246880 
	C525.032043,102.246880 530.267151,102.246880 535.918335,102.246880 
	C535.918335,115.490189 535.918335,128.804977 535.918335,142.386642 
	C530.490662,142.386642 525.254761,142.386642 519.349792,142.386642 
	C519.349792,139.907272 519.349792,137.640366 519.350037,134.890900 
z"/>
<path fill="#E65764" opacity="1.000000" stroke="none" 
	d="
M373.917480,130.980377 
	C373.917480,121.209686 373.917480,111.934784 373.917480,102.290024 
	C379.538513,102.290024 384.880066,102.290024 390.498718,102.290024 
	C390.498718,115.670654 390.498718,128.854187 390.498718,142.340912 
	C385.050232,142.340912 379.825287,142.340912 373.917511,142.340912 
	C373.917511,138.643829 373.917511,135.060013 373.917480,130.980377 
z"/>
<path fill="#E65664" opacity="1.000000" stroke="none" 
	d="
M390.511169,90.786713 
	C389.686554,95.907021 386.841309,98.587013 382.094574,98.670395 
	C378.088409,98.740784 375.071655,96.710953 374.001495,92.692802 
	C372.976654,88.844772 373.962738,85.476372 377.436340,83.176537 
	C383.053040,79.457802 388.999359,82.755013 390.511169,90.786713 
z"/>
<path fill="#E65865" opacity="1.000000" stroke="none" 
	d="
M520.172668,86.326897 
	C523.774109,81.771523 528.729065,80.620308 532.468811,83.166687 
	C535.929260,85.522850 537.172729,90.471558 535.240784,94.198311 
	C533.332825,97.878807 529.034180,99.615295 525.138977,98.279129 
	C520.158203,96.570587 518.527283,92.891403 520.172668,86.326897 
z"/>
<path fill="#FEF6F7" opacity="1.000000" stroke="none" 
	d="
M617.000549,128.029602 
	C611.358826,125.946335 609.517273,119.834824 612.869385,115.641121 
	C614.871521,113.136322 618.583191,112.933365 620.713013,115.212196 
	C624.434814,119.194427 622.677429,125.976601 617.000549,128.029602 
z"/>
<path fill="#FEF8F9" opacity="1.000000" stroke="none" 
	d="
M294.150452,115.169952 
	C297.987823,114.069656 300.646545,115.004852 301.999298,118.576286 
	C303.464661,122.445007 303.229187,126.160851 300.009857,129.008484 
	C297.020325,131.652893 292.025696,129.780182 291.089600,125.630165 
	C290.237823,121.853943 290.147003,118.026779 294.150452,115.169952 
z"/>
<path fill="#FEF5F6" opacity="1.000000" stroke="none" 
	d="
M690.573608,116.755630 
	C692.557312,115.149017 694.351501,113.040283 696.253601,112.937996 
	C697.596924,112.865746 699.086548,115.513275 700.510864,116.946587 
	C700.185913,117.469528 699.860962,117.992470 699.536011,118.515411 
	C696.500793,118.047295 693.465515,117.579178 690.573608,116.755630 
z"/>
<path fill="#FDF5F5" opacity="1.000000" stroke="none" 
	d="
M415.774750,118.121490 
	C413.543121,114.603226 416.174011,113.190338 418.551697,112.660828 
	C421.904480,111.914192 423.748474,113.897820 424.015869,118.154778 
	C421.287170,118.154778 418.731445,118.154778 415.774750,118.121490 
z"/>
</svg>